# xmcd
# 
# Track frame offsets:
#     150
#     4199
#     28205
#     46001
#     65735
#     84938
#     103250
#     123903
#     147223
#     165436
#     184701
#     200931
# 
# Disc length: 3094
# 
# Revision: 1
# Processed by: cddbd v1.5.2PL0 Copyright (c) Steve Scherf et al.
# Submitted via: BonkEnc v1.0.6
# 
DISCID=a20c140c
DTITLE=サカナクション - kikUUiki
DYEAR=2010
DGENRE=J-POP(J)
TTITLE0=intro＝汽空域
TTITLE1=潮
TTITLE2=YES NO
TTITLE3=アルクアラウンド
TTITLE4=Klee
TTITLE5=21.1
TTITLE6=アンダー
TTITLE7=シーラカンスと僕
TTITLE8=明日から
TTITLE9=表参道26時
TTITLE10=壁
TTITLE11=目が明く藍色
EXTD=
EXTT0=
EXTT1=
EXTT2=
EXTT3=
EXTT4=
EXTT5=
EXTT6=
EXTT7=
EXTT8=
EXTT9=
EXTT10=
EXTT11=
PLAYORDER=
